# xmcd
#
# Track frame offsets:
#  150
#  17156
#  31341
#  46395
#  56000
#  74733
#  95556
#  110966
#  131189
#  156810
#  184489
#  202468
#  220069
#
# Disc length: 3262 seconds
#
# Revision: 0
# Processed by: cddbd v1.5.1PL2 Copyright (c) Steve Scherf et al.
# Submitted via: Collectorz.com_Music_Collector 6.11
#
DISCID=d50cbc0d
DTITLE=Cold Blue Steel - Low Down And Dirty
DYEAR=2001
DGENRE=Country
TTITLE0=Baby Put The Chainsaw Down
TTITLE1=Soon As I Get Paid
TTITLE2=Lookin' Back
TTITLE3=Cool Guitars
TTITLE4=Low Down And Dirty
TTITLE5=The Battle Of Curtis Loew
TTITLE6=Down South Junkin'
TTITLE7=Trudy
TTITLE8=One Way Out
TTITLE9=A fool For Your Stockings
TTITLE10=Trouble No More
TTITLE11=It Is What It Is
TTITLE12=Detroit Iron
EXTD=
EXTT0=
EXTT1=
EXTT2=
EXTT3=
EXTT4=
EXTT5=
EXTT6=
EXTT7=
EXTT8=
EXTT9=
EXTT10=
EXTT11=
EXTT12=
PLAYORDER=
